<?xml version="1.0" encoding="UTF-8" standalone="no"?><!DOCTYPE svg PUBLIC "-//W3C//DTD SVG 1.1//EN" "http://www.w3.org/Graphics/SVG/1.1/DTD/svg11.dtd"><svg width="100%" height="100%" viewBox="0 0 154 106" version="1.1" xmlns="http://www.w3.org/2000/svg" xmlns:xlink="http://www.w3.org/1999/xlink" xml:space="preserve" xmlns:serif="http://www.serif.com/" style="fill-rule:evenodd;clip-rule:evenodd;stroke-linejoin:round;stroke-miterlimit:2;"><rect id="Logo-Principal" serif:id="Logo Principal" x="0" y="0" width="154" height="105.4" style="fill:none;"/><g id="Camada-1" serif:id="Camada 1"><path d="M57.241,64.277l-4.504,-0l0,4.435l4.711,-0c1.94,-0 3.118,-0.763 3.118,-2.218l0,-0.046c0,-1.363 -1.085,-2.171 -3.325,-2.171m2.425,-4.642c0,-1.27 -1.017,-2.055 -2.841,-2.055l-4.088,-0l0,4.295l3.88,-0c1.825,-0 3.049,-0.716 3.049,-2.195l0,-0.045Zm-9.723,-4.573l7.251,-0c1.847,-0 3.303,0.508 4.227,1.432c0.716,0.716 1.085,1.594 1.085,2.679l0,0.045c0,1.941 -1.108,2.981 -2.309,3.604c1.893,0.646 3.211,1.732 3.211,3.926l0,0.047c0,2.886 -2.379,4.433 -5.982,4.433l-7.483,-0l0,-16.166Z" style="fill:#010303;fill-rule:nonzero;"/><path d="M73.617,63.076c2.033,-0 3.326,-1.062 3.326,-2.702l-0,-0.046c-0,-1.732 -1.246,-2.679 -3.348,-2.679l-4.134,-0l-0,5.427l4.156,-0Zm-6.998,-8.014l7.206,-0c2.033,-0 3.626,0.601 4.666,1.618c0.853,0.876 1.339,2.078 1.339,3.486l-0,0.047c-0,2.655 -1.593,4.249 -3.835,4.895l4.366,6.12l-3.372,-0l-3.973,-5.635l-3.555,-0l-0,5.635l-2.842,-0l-0,-16.166Z" style="fill:#010303;fill-rule:nonzero;"/><rect x="83.48" y="55.062" width="2.842" height="16.166" style="fill:#010303;"/><path d="M90.641,55.062l2.633,-0l8.66,11.178l-0,-11.178l2.795,-0l-0,16.166l-2.378,-0l-8.915,-11.501l-0,11.501l-2.795,-0l-0,-16.166Z" style="fill:#010303;fill-rule:nonzero;"/><path d="M111.728,57.649l0,10.992l3.187,-0c3.395,-0 5.612,-2.286 5.612,-5.45l0,-0.046c0,-3.164 -2.217,-5.496 -5.612,-5.496l-3.187,-0Zm-2.84,-2.587l6.027,-0c5.081,-0 8.592,3.487 8.592,8.036l0,0.047c0,4.55 -3.511,8.083 -8.592,8.083l-6.027,-0l0,-16.166Z" style="fill:#010303;fill-rule:nonzero;"/><path d="M126.951,55.062l11.985,-0l0,2.541l-9.145,-0l0,4.202l8.106,-0l0,2.541l-8.106,-0l0,4.342l9.261,-0l0,2.54l-12.101,-0l0,-16.166Z" style="fill:#010303;fill-rule:nonzero;"/><path d="M141.341,68.873l1.709,-2.032c1.547,1.339 3.118,2.101 5.103,2.101c1.756,-0 2.864,-0.831 2.864,-2.032l-0,-0.047c-0,-1.154 -0.647,-1.778 -3.648,-2.47c-3.442,-0.832 -5.382,-1.848 -5.382,-4.828l-0,-0.046c-0,-2.771 2.31,-4.688 5.52,-4.688c2.355,-0 4.227,0.716 5.867,2.032l-1.524,2.149c-1.455,-1.086 -2.911,-1.663 -4.388,-1.663c-1.664,-0 -2.634,0.854 -2.634,1.917l-0,0.045c-0,1.249 0.74,1.802 3.857,2.541c3.419,0.832 5.174,2.055 5.174,4.735l-0,0.046c-0,3.025 -2.379,4.827 -5.775,4.827c-2.472,-0 -4.804,-0.855 -6.743,-2.587" style="fill:#010303;fill-rule:nonzero;"/><rect x="0.142" y="34.179" width="41.588" height="41.588" style="fill:#f39322;"/><rect x="27.867" y="6.454" width="41.588" height="41.588" style="fill:#010303;"/><path d="M50.474,77.015l-0,15.916l4.919,0c4.968,0 8.417,-3.496 8.417,-7.91l-0,-0.048c-0,-4.437 -3.473,-7.958 -8.465,-7.958l-4.871,0Zm-0.531,-0.482l5.427,0c5.304,0 8.97,3.666 8.97,8.416l-0,0.048c-0,4.75 -3.666,8.416 -8.97,8.416l-5.427,0l-0,-16.88Z" style="fill:#010303;fill-rule:nonzero;"/><path d="M68.612,76.533l11.792,-0l-0,0.482l-11.261,-0l-0,7.669l10.225,-0l-0,0.482l-10.225,-0l-0,7.765l11.383,-0l-0,0.483l-11.914,-0l-0,-16.881Z" style="fill:#010303;fill-rule:nonzero;"/><path d="M91.31,76.533l0.53,-0l-0,16.398l10.37,-0l-0,0.483l-10.9,-0l-0,-16.881Z" style="fill:#010303;fill-rule:nonzero;"/><path d="M104.648,85.938l0,-9.405l0.53,-0l0,9.405c0,4.847 2.58,7.258 6.319,7.258c3.786,-0 6.269,-2.411 6.269,-7.235l0,-9.428l0.53,-0l0,9.405c0,5.161 -2.748,7.741 -6.824,7.741c-4.027,-0 -6.824,-2.556 -6.824,-7.741" style="fill:#010303;fill-rule:nonzero;"/><path d="M135.375,76.533l-6.655,8.296l6.896,8.585l-0.627,-0l-6.583,-8.248l-6.559,8.248l-0.652,-0l6.873,-8.585l-6.631,-8.296l0.626,-0l6.343,7.958l6.319,-7.958l0.65,-0Z" style="fill:#010303;fill-rule:nonzero;"/><path d="M153.32,85.021l0,-0.048c0,-4.316 -3.183,-8.248 -7.886,-8.248c-4.726,-0 -7.837,3.859 -7.837,8.2l0,0.048c0,4.317 3.184,8.248 7.886,8.248c4.727,-0 7.837,-3.859 7.837,-8.2m-16.253,-0.023l0,-0.049c0,-4.606 3.279,-8.705 8.392,-8.705c5.113,-0 8.392,4.099 8.392,8.705l0,0.049c0,4.605 -3.279,8.705 -8.392,8.705c-5.113,-0 -8.392,-4.1 -8.392,-8.705" style="fill:#010303;fill-rule:nonzero;"/></g></svg>